<?xml version="1.0" encoding="UTF-8"?>
<!DOCTYPE svg PUBLIC "-//W3C//DTD SVG 1.1//EN" "http://www.w3.org/Graphics/SVG/1.1/DTD/svg11.dtd">
<svg xmlns="http://www.w3.org/2000/svg" version="1.1" width="700px" height="300px" style="shape-rendering:geometricPrecision; text-rendering:geometricPrecision; image-rendering:optimizeQuality; fill-rule:evenodd; clip-rule:evenodd" xmlns:xlink="http://www.w3.org/1999/xlink">
<g><path style="opacity:0.928" fill="#0823d7" d="M 210.5,142.5 C 206.631,144.439 202.297,145.439 197.5,145.5C 195.821,145.892 194.154,146.392 192.5,147C 196.167,147.333 199.833,147.667 203.5,148C 202.748,148.671 202.414,149.504 202.5,150.5C 197.759,150.735 193.092,151.402 188.5,152.5C 188.5,150.167 188.5,147.833 188.5,145.5C 195.474,142.898 202.807,141.898 210.5,142.5 Z"/></g>
<g><path style="opacity:1" fill="#2247cc" d="M 210.5,142.5 C 214.198,142.552 217.865,142.886 221.5,143.5C 217.273,145.28 212.606,146.114 207.5,146C 208.416,146.278 209.082,146.778 209.5,147.5C 205.316,147.149 201.316,146.482 197.5,145.5C 202.297,145.439 206.631,144.439 210.5,142.5 Z"/></g>
<g><path style="opacity:1" fill="#2352c1" d="M 221.5,143.5 C 225.025,144.21 228.358,145.21 231.5,146.5C 228.055,146.806 224.389,146.806 220.5,146.5C 220.529,149.656 222.196,151.322 225.5,151.5C 226.298,151.957 226.631,152.624 226.5,153.5C 222.313,152.787 218.313,151.787 214.5,150.5C 215.376,150.631 216.043,150.298 216.5,149.5C 214.293,148.365 211.96,147.699 209.5,147.5C 209.082,146.778 208.416,146.278 207.5,146C 212.606,146.114 217.273,145.28 221.5,143.5 Z"/></g>
<g><path style="opacity:0.875" fill="#0813e8" d="M 188.5,145.5 C 188.5,147.833 188.5,150.167 188.5,152.5C 182.434,154.039 176.767,156.372 171.5,159.5C 163.132,161.863 156.798,166.863 152.5,174.5C 151.833,174.833 151.167,175.167 150.5,175.5C 157.822,162.35 168.488,152.85 182.5,147C 184.436,146.187 186.436,145.687 188.5,145.5 Z"/></g>
<g><path style="opacity:1" fill="#0831cb" d="M 197.5,145.5 C 201.316,146.482 205.316,147.149 209.5,147.5C 211.96,147.699 214.293,148.365 216.5,149.5C 216.043,150.298 215.376,150.631 214.5,150.5C 210.5,150.5 206.5,150.5 202.5,150.5C 202.414,149.504 202.748,148.671 203.5,148C 199.833,147.667 196.167,147.333 192.5,147C 194.154,146.392 195.821,145.892 197.5,145.5 Z"/></g>
<g><path style="opacity:1" fill="#2765be" d="M 231.5,146.5 C 236.95,148.061 241.95,150.394 246.5,153.5C 242.004,151.586 237.337,150.253 232.5,149.5C 232.215,151.288 232.548,152.955 233.5,154.5C 237.496,156.163 241.163,158.329 244.5,161C 242.494,160.85 240.494,160.35 238.5,159.5C 237.508,159.672 236.842,159.338 236.5,158.5C 233.404,156.285 230.071,154.619 226.5,153.5C 226.631,152.624 226.298,151.957 225.5,151.5C 222.196,151.322 220.529,149.656 220.5,146.5C 224.389,146.806 228.055,146.806 231.5,146.5 Z"/></g>
<g><path style="opacity:0.994" fill="#1020e7" d="M 336.5,153.5 C 337.506,154.396 337.506,155.062 336.5,155.5C 335.5,155.5 334.5,155.5 333.5,155.5C 331.343,154.593 329.01,153.927 326.5,153.5C 325.833,153.5 325.167,153.5 324.5,153.5C 312.584,150.981 301.918,153.814 292.5,162C 290.21,163.777 288.543,165.944 287.5,168.5C 284.5,171.833 281.5,175.167 278.5,178.5C 278.167,177.5 277.5,176.833 276.5,176.5C 275.833,175.5 275.167,174.5 274.5,173.5C 288.108,155.529 306.108,147.695 328.5,150C 331.476,150.705 334.142,151.871 336.5,153.5 Z"/></g>
<g><path style="opacity:0.896" fill="#1f77c4" d="M 294.5,153.5 C 294.158,152.662 293.492,152.328 292.5,152.5C 296.209,150.431 300.209,149.265 304.5,149C 301.259,150.789 297.926,152.289 294.5,153.5 Z"/></g>
<g><path style="opacity:1" fill="#0856b6" d="M 324.5,153.5 C 325.167,153.5 325.833,153.5 326.5,153.5C 327.81,157.145 329.144,160.811 330.5,164.5C 327.833,164.167 325.167,163.833 322.5,163.5C 320.393,162.532 318.059,162.198 315.5,162.5C 315.44,159.659 314.774,156.993 313.5,154.5C 316.962,153.518 320.629,153.185 324.5,153.5 Z"/></g>
<g><path style="opacity:1" fill="#0821ac" d="M 209.5,152.5 C 215.274,152.962 220.94,153.962 226.5,155.5C 227.167,157.833 227.833,160.167 228.5,162.5C 225.211,161.626 221.877,160.959 218.5,160.5C 215.67,160.037 213.003,159.371 210.5,158.5C 210.938,158.565 211.272,158.399 211.5,158C 210.756,156.185 210.089,154.352 209.5,152.5 Z"/></g>
<g><path style="opacity:1" fill="#0c11b3" d="M 209.5,152.5 C 210.089,154.352 210.756,156.185 211.5,158C 211.272,158.399 210.938,158.565 210.5,158.5C 194.624,157.23 181.29,162.23 170.5,173.5C 170.5,174.167 170.167,174.5 169.5,174.5C 167.882,171.829 167.215,168.829 167.5,165.5C 179.61,155.577 193.61,151.244 209.5,152.5 Z"/></g>
<g><path style="opacity:1" fill="#3a82ce" d="M 246.5,153.5 C 249.331,154.079 251.664,155.412 253.5,157.5C 250.2,156.171 248.533,157.504 248.5,161.5C 249.432,163.765 250.765,165.765 252.5,167.5C 249.5,166.167 246.5,164.833 243.5,163.5C 241.651,162.407 239.984,161.074 238.5,159.5C 240.494,160.35 242.494,160.85 244.5,161C 241.163,158.329 237.496,156.163 233.5,154.5C 232.548,152.955 232.215,151.288 232.5,149.5C 237.337,150.253 242.004,151.586 246.5,153.5 Z"/></g>
<g><path style="opacity:1" fill="#0341b7" d="M 326.5,153.5 C 329.01,153.927 331.343,154.593 333.5,155.5C 334.637,159.579 335.971,163.579 337.5,167.5C 335.938,167.267 334.605,166.6 333.5,165.5C 332.391,165.443 331.391,165.11 330.5,164.5C 329.144,160.811 327.81,157.145 326.5,153.5 Z"/></g>
<g><path style="opacity:1" fill="#0432c7" d="M 333.5,155.5 C 334.5,155.5 335.5,155.5 336.5,155.5C 338.189,156.304 339.855,157.304 341.5,158.5C 344.045,164.808 346.379,171.141 348.5,177.5C 346.861,175.194 344.861,173.194 342.5,171.5C 340.809,170.136 339.142,168.803 337.5,167.5C 335.971,163.579 334.637,159.579 333.5,155.5 Z"/></g>
<g><path style="opacity:1" fill="#4496dc" d="M 253.5,157.5 C 256.37,158.433 258.704,160.1 260.5,162.5C 258.488,165.934 258.154,169.601 259.5,173.5C 257.445,171.445 255.112,169.779 252.5,168.5C 252.5,168.167 252.5,167.833 252.5,167.5C 250.765,165.765 249.432,163.765 248.5,161.5C 248.533,157.504 250.2,156.171 253.5,157.5 Z"/></g>
<g><path style="opacity:1" fill="#072da5" d="M 226.5,155.5 C 229.699,156.899 233.032,157.899 236.5,158.5C 236.842,159.338 237.508,159.672 238.5,159.5C 239.984,161.074 241.651,162.407 243.5,163.5C 243.851,165.869 244.018,168.203 244,170.5C 243.329,169.748 242.496,169.414 241.5,169.5C 237.584,166.71 233.251,164.71 228.5,163.5C 228.5,163.167 228.5,162.833 228.5,162.5C 227.833,160.167 227.167,157.833 226.5,155.5 Z"/></g>
<g><path style="opacity:1" fill="#7780f3" d="M 324.5,153.5 C 320.629,153.185 316.962,153.518 313.5,154.5C 309.824,154.583 306.491,155.583 303.5,157.5C 297.617,160.386 292.284,164.052 287.5,168.5C 288.543,165.944 290.21,163.777 292.5,162C 301.918,153.814 312.584,150.981 324.5,153.5 Z"/></g>
<g><path style="opacity:1" fill="#0a0f8d" d="M 210.5,158.5 C 213.003,159.371 215.67,160.037 218.5,160.5C 218.261,162.467 218.594,164.301 219.5,166C 219,166.167 218.5,166.333 218,166.5C 209.609,164.522 201.109,164.022 192.5,165C 191.263,165.232 190.263,165.732 189.5,166.5C 183.038,168.646 177.704,172.312 173.5,177.5C 172.978,175.781 171.978,174.448 170.5,173.5C 181.29,162.23 194.624,157.23 210.5,158.5 Z"/></g>
<g><path style="opacity:1" fill="#2a7bce" d="M 313.5,154.5 C 314.774,156.993 315.44,159.659 315.5,162.5C 318.059,162.198 320.393,162.532 322.5,163.5C 319.833,163.5 317.167,163.5 314.5,163.5C 312.418,163.472 310.584,164.139 309,165.5C 307.892,169.086 307.392,172.753 307.5,176.5C 305.192,178.471 302.858,180.471 300.5,182.5C 300.914,177.926 301.581,173.426 302.5,169C 302.272,168.601 301.938,168.435 301.5,168.5C 302.981,167.579 304.314,166.412 305.5,165C 304.521,162.567 303.855,160.067 303.5,157.5C 306.491,155.583 309.824,154.583 313.5,154.5 Z"/></g>
<g><path style="opacity:0.907" fill="#0323d4" d="M 336.5,153.5 C 350.854,161.686 358.187,174.186 358.5,191C 358.436,195.834 357.436,200.334 355.5,204.5C 355.806,201.615 355.473,198.948 354.5,196.5C 354.326,194.139 353.993,191.806 353.5,189.5C 352.222,185.333 350.556,181.333 348.5,177.5C 346.379,171.141 344.045,164.808 341.5,158.5C 339.855,157.304 338.189,156.304 336.5,155.5C 337.506,155.062 337.506,154.396 336.5,153.5 Z"/></g>
<g><path style="opacity:0.812" fill="#0622d1" d="M 288.5,154.5 C 282.321,158.439 276.654,163.106 271.5,168.5C 270.711,168.217 270.044,167.717 269.5,167C 275.192,161.799 281.525,157.632 288.5,154.5 Z"/></g>
<g><path style="opacity:0.998" fill="#5ec1fc" d="M 314.5,163.5 C 317.167,163.5 319.833,163.5 322.5,163.5C 325.167,163.833 327.833,164.167 330.5,164.5C 331.391,165.11 332.391,165.443 333.5,165.5C 333.5,168.5 333.5,171.5 333.5,174.5C 329.901,173.656 326.234,173.323 322.5,173.5C 319.721,173.279 317.054,173.612 314.5,174.5C 314.5,170.833 314.5,167.167 314.5,163.5 Z"/></g>
<g><path style="opacity:0.98" fill="#0c2074" d="M 292.5,152.5 C 293.492,152.328 294.158,152.662 294.5,153.5C 287.162,157.656 280.495,162.822 274.5,169C 273.251,169.74 272.251,169.573 271.5,168.5C 276.654,163.106 282.321,158.439 288.5,154.5C 289.514,153.326 290.847,152.66 292.5,152.5 Z"/></g>
<g><path style="opacity:1" fill="#0a1584" d="M 218.5,160.5 C 221.877,160.959 225.211,161.626 228.5,162.5C 228.5,162.833 228.5,163.167 228.5,163.5C 230.65,169.472 229.15,171.139 224,168.5C 223.5,168.833 223,169.167 222.5,169.5C 223.246,170.736 223.579,172.07 223.5,173.5C 212.203,170.293 201.203,170.96 190.5,175.5C 190.827,173.512 191.16,171.512 191.5,169.5C 191.36,167.97 190.693,166.97 189.5,166.5C 190.263,165.732 191.263,165.232 192.5,165C 201.109,164.022 209.609,164.522 218,166.5C 218.5,166.333 219,166.167 219.5,166C 218.594,164.301 218.261,162.467 218.5,160.5 Z"/></g>
<g><path style="opacity:1" fill="#4b9de1" d="M 314.5,163.5 C 314.5,167.167 314.5,170.833 314.5,174.5C 312.079,174.878 309.746,175.545 307.5,176.5C 307.392,172.753 307.892,169.086 309,165.5C 310.584,164.139 312.418,163.472 314.5,163.5 Z"/></g>
<g><path style="opacity:1" fill="#0a0eab" d="M 167.5,165.5 C 167.215,168.829 167.882,171.829 169.5,174.5C 158.853,189.685 156.686,206.018 163,223.5C 163.167,223 163.333,222.5 163.5,222C 161.983,208.292 162.817,208.126 166,221.5C 169.406,229.074 174.906,234.408 182.5,237.5C 187.953,241.56 193.953,244.56 200.5,246.5C 194.07,248.005 187.737,247.338 181.5,244.5C 168.148,240.461 158.148,232.461 151.5,220.5C 148.047,210.946 147.714,201.279 150.5,191.5C 152.02,189.11 153.02,186.443 153.5,183.5C 155.008,181.819 156.008,179.819 156.5,177.5C 159.7,173.121 163.367,169.121 167.5,165.5 Z"/></g>
<g><path style="opacity:1" fill="#7886db" d="M 202.5,150.5 C 206.5,150.5 210.5,150.5 214.5,150.5C 218.313,151.787 222.313,152.787 226.5,153.5C 230.071,154.619 233.404,156.285 236.5,158.5C 233.032,157.899 229.699,156.899 226.5,155.5C 220.94,153.962 215.274,152.962 209.5,152.5C 193.61,151.244 179.61,155.577 167.5,165.5C 163.367,169.121 159.7,173.121 156.5,177.5C 160.029,170.301 165.029,164.301 171.5,159.5C 176.767,156.372 182.434,154.039 188.5,152.5C 193.092,151.402 197.759,150.735 202.5,150.5 Z"/></g>
<g><path style="opacity:0.992" fill="#092088" d="M 228.5,163.5 C 233.251,164.71 237.584,166.71 241.5,169.5C 240.848,170.449 240.514,171.615 240.5,173C 241.084,176.983 242.084,180.817 243.5,184.5C 236.792,180.764 230.125,177.097 223.5,173.5C 223.579,172.07 223.246,170.736 222.5,169.5C 223,169.167 223.5,168.833 224,168.5C 229.15,171.139 230.65,169.472 228.5,163.5 Z"/></g>
<g><path style="opacity:1" fill="#062c91" d="M 243.5,163.5 C 246.5,164.833 249.5,166.167 252.5,167.5C 252.5,167.833 252.5,168.167 252.5,168.5C 252.855,171.067 253.521,173.567 254.5,176C 254.167,176.5 253.833,177 253.5,177.5C 251.807,175.973 249.973,174.64 248,173.5C 248.701,180.108 250.534,186.442 253.5,192.5C 249.854,190.183 246.52,187.516 243.5,184.5C 242.084,180.817 241.084,176.983 240.5,173C 240.514,171.615 240.848,170.449 241.5,169.5C 242.496,169.414 243.329,169.748 244,170.5C 244.018,168.203 243.851,165.869 243.5,163.5 Z"/></g>
<g><path style="opacity:0.975" fill="#58b2f1" d="M 260.5,162.5 C 265.746,165.411 270.413,169.078 274.5,173.5C 275.167,174.5 275.833,175.5 276.5,176.5C 275.525,179.311 274.858,182.311 274.5,185.5C 271.55,183.885 268.884,181.885 266.5,179.5C 264.393,177.273 262.06,175.273 259.5,173.5C 258.154,169.601 258.488,165.934 260.5,162.5 Z"/></g>
<g><path style="opacity:1" fill="#34a7f5" d="M 303.5,157.5 C 303.855,160.067 304.521,162.567 305.5,165C 304.314,166.412 302.981,167.579 301.5,168.5C 299.566,169.11 297.899,170.11 296.5,171.5C 295.167,172.167 294.167,173.167 293.5,174.5C 289.116,176.61 286.116,179.943 284.5,184.5C 282.833,182.167 280.833,180.167 278.5,178.5C 281.5,175.167 284.5,171.833 287.5,168.5C 292.284,164.052 297.617,160.386 303.5,157.5 Z"/></g>
<g><path style="opacity:1" fill="#56a9f8" d="M 333.5,165.5 C 334.605,166.6 335.938,167.267 337.5,167.5C 339.142,168.803 340.809,170.136 342.5,171.5C 342.483,173.565 342.15,175.565 341.5,177.5C 338.828,176.499 336.162,175.499 333.5,174.5C 333.5,171.5 333.5,168.5 333.5,165.5 Z"/></g>
<g><path style="opacity:1" fill="#394be1" d="M 171.5,159.5 C 165.029,164.301 160.029,170.301 156.5,177.5C 154.461,178.911 153.461,180.911 153.5,183.5C 153.02,186.443 152.02,189.11 150.5,191.5C 150.436,185.738 151.103,180.071 152.5,174.5C 156.798,166.863 163.132,161.863 171.5,159.5 Z"/></g>
<g><path style="opacity:0.997" fill="#3363c9" d="M 301.5,168.5 C 301.938,168.435 302.272,168.601 302.5,169C 301.581,173.426 300.914,177.926 300.5,182.5C 299.833,183.833 298.833,184.833 297.5,185.5C 297.167,180.833 296.833,176.167 296.5,171.5C 297.899,170.11 299.566,169.11 301.5,168.5 Z"/></g>
<g><path style="opacity:1" fill="#0c0d6e" d="M 189.5,166.5 C 190.693,166.97 191.36,167.97 191.5,169.5C 191.16,171.512 190.827,173.512 190.5,175.5C 171.72,187.504 166.053,204.17 173.5,225.5C 168.316,218.283 165.983,210.117 166.5,201C 166.118,192.318 168.451,184.484 173.5,177.5C 177.704,172.312 183.038,168.646 189.5,166.5 Z"/></g>
<g><path style="opacity:0.994" fill="#3557d5" d="M 296.5,171.5 C 296.833,176.167 297.167,180.833 297.5,185.5C 296.066,188.047 294.4,190.381 292.5,192.5C 291.508,192.672 290.842,192.338 290.5,191.5C 292.148,186.079 293.148,180.412 293.5,174.5C 294.167,173.167 295.167,172.167 296.5,171.5 Z"/></g>
<g><path style="opacity:1" fill="#0b0d81" d="M 170.5,173.5 C 171.978,174.448 172.978,175.781 173.5,177.5C 168.451,184.484 166.118,192.318 166.5,201C 165.983,210.117 168.316,218.283 173.5,225.5C 176.469,229.476 179.469,233.476 182.5,237.5C 174.906,234.408 169.406,229.074 166,221.5C 162.817,208.126 161.983,208.292 163.5,222C 163.333,222.5 163.167,223 163,223.5C 156.686,206.018 158.853,189.685 169.5,174.5C 170.167,174.5 170.5,174.167 170.5,173.5 Z"/></g>
<g><path style="opacity:1" fill="#4c8df3" d="M 342.5,171.5 C 344.861,173.194 346.861,175.194 348.5,177.5C 350.556,181.333 352.222,185.333 353.5,189.5C 351.53,187.353 349.697,185.02 348,182.5C 345.713,180.946 343.546,179.279 341.5,177.5C 342.15,175.565 342.483,173.565 342.5,171.5 Z"/></g>
<g><path style="opacity:1" fill="#266498" d="M 322.5,173.5 C 326.234,173.323 329.901,173.656 333.5,174.5C 336.162,175.499 338.828,176.499 341.5,177.5C 343.546,179.279 345.713,180.946 348,182.5C 349.697,185.02 351.53,187.353 353.5,189.5C 353.993,191.806 354.326,194.139 354.5,196.5C 354.5,197.5 354.5,198.5 354.5,199.5C 350.989,187.206 342.655,180.872 329.5,180.5C 327.473,177.806 325.139,175.473 322.5,173.5 Z"/></g>
<g><path style="opacity:0.998" fill="#3542e8" d="M 152.5,174.5 C 151.103,180.071 150.436,185.738 150.5,191.5C 147.714,201.279 148.047,210.946 151.5,220.5C 151.433,221.959 151.766,223.292 152.5,224.5C 149.578,231.681 148.245,239.347 148.5,247.5C 145.432,243.356 143.432,238.689 142.5,233.5C 143.507,215.77 145.174,198.103 147.5,180.5C 148.11,178.566 149.11,176.899 150.5,175.5C 151.167,175.167 151.833,174.833 152.5,174.5 Z"/></g>
<g><path style="opacity:1" fill="#60c2fd" d="M 276.5,176.5 C 277.5,176.833 278.167,177.5 278.5,178.5C 280.833,180.167 282.833,182.167 284.5,184.5C 286.5,186.833 288.5,189.167 290.5,191.5C 290.842,192.338 291.508,192.672 292.5,192.5C 297.575,197.703 303.575,201.37 310.5,203.5C 311.263,204.268 312.263,204.768 313.5,205C 317.152,205.499 320.818,205.665 324.5,205.5C 322.708,206.309 320.708,206.809 318.5,207C 323.796,207.88 328.796,207.047 333.5,204.5C 326.286,212.79 317.286,215.457 306.5,212.5C 304.167,211.167 301.833,209.833 299.5,208.5C 294.23,204.569 289.23,200.236 284.5,195.5C 280.833,192.5 277.5,189.167 274.5,185.5C 274.858,182.311 275.525,179.311 276.5,176.5 Z"/></g>
<g><path style="opacity:1" fill="#364ce4" d="M 293.5,174.5 C 293.148,180.412 292.148,186.079 290.5,191.5C 288.5,189.167 286.5,186.833 284.5,184.5C 286.116,179.943 289.116,176.61 293.5,174.5 Z"/></g>
<g><path style="opacity:1" fill="#166bbf" d="M 206.5,174.5 C 210.574,174.782 214.574,175.448 218.5,176.5C 219.167,178.167 219.833,179.833 220.5,181.5C 215.537,180.746 210.537,180.413 205.5,180.5C 206.091,179.849 206.757,179.182 207.5,178.5C 206.754,177.264 206.421,175.93 206.5,174.5 Z"/></g>
<g><path style="opacity:1" fill="#0e2f97" d="M 206.5,174.5 C 206.421,175.93 206.754,177.264 207.5,178.5C 206.757,179.182 206.091,179.849 205.5,180.5C 200.921,180.615 196.588,181.615 192.5,183.5C 192.672,182.508 192.338,181.842 191.5,181.5C 192.806,180.533 193.473,179.199 193.5,177.5C 197.791,176.222 202.124,175.222 206.5,174.5 Z"/></g>
<g><path style="opacity:0.594" fill="#0323d1" d="M 193.5,177.5 C 193.473,179.199 192.806,180.533 191.5,181.5C 187.302,183.433 183.635,186.099 180.5,189.5C 183.533,184.135 187.866,180.135 193.5,177.5 Z"/></g>
<g><path style="opacity:1" fill="#6d73d9" d="M 156.5,177.5 C 156.008,179.819 155.008,181.819 153.5,183.5C 153.461,180.911 154.461,178.911 156.5,177.5 Z"/></g>
<g><path style="opacity:0.678" fill="#2d9eec" d="M 218.5,176.5 C 223.132,177.814 227.132,180.147 230.5,183.5C 230.333,183.833 230.167,184.167 230,184.5C 226.961,183.115 223.794,182.115 220.5,181.5C 219.833,179.833 219.167,178.167 218.5,176.5 Z"/></g>
<g><path style="opacity:1" fill="#05368f" d="M 252.5,168.5 C 255.112,169.779 257.445,171.445 259.5,173.5C 262.06,175.273 264.393,177.273 266.5,179.5C 268.679,183.872 270.012,188.539 270.5,193.5C 267.87,191.372 265.37,189.039 263,186.5C 262.666,188.847 262.833,191.181 263.5,193.5C 264.5,193.5 265.5,193.5 266.5,193.5C 266.838,195.854 267.338,198.187 268,200.5C 268.333,199.833 268.667,199.167 269,198.5C 269.78,200.387 269.613,202.054 268.5,203.5C 267.5,202.167 266.5,202.167 265.5,203.5C 264.581,200.911 262.914,198.911 260.5,197.5C 257.883,196.214 255.55,194.547 253.5,192.5C 250.534,186.442 248.701,180.108 248,173.5C 249.973,174.64 251.807,175.973 253.5,177.5C 253.833,177 254.167,176.5 254.5,176C 253.521,173.567 252.855,171.067 252.5,168.5 Z"/></g>
<g><path style="opacity:0.987" fill="#35abf4" d="M 329.5,180.5 C 342.655,180.872 350.989,187.206 354.5,199.5C 354.54,202.881 354.207,206.214 353.5,209.5C 350.246,217.088 344.913,222.755 337.5,226.5C 337.586,225.504 337.252,224.671 336.5,224C 339.028,222.684 339.028,221.517 336.5,220.5C 335.727,217.569 334.727,214.736 333.5,212C 330.912,212.757 328.246,213.757 325.5,215C 322.183,215.498 318.85,215.665 315.5,215.5C 312.215,215.072 309.215,214.072 306.5,212.5C 317.286,215.457 326.286,212.79 333.5,204.5C 339.808,198.373 340.975,191.373 337,183.5C 339.046,191.124 337.212,197.624 331.5,203C 329.35,204.411 327.016,205.245 324.5,205.5C 320.818,205.665 317.152,205.499 313.5,205C 312.263,204.768 311.263,204.268 310.5,203.5C 328.302,205.044 334.636,197.378 329.5,180.5 Z"/></g>
<g><path style="opacity:0.949" fill="#091996" d="M 191.5,181.5 C 192.338,181.842 192.672,182.508 192.5,183.5C 187.841,185.164 183.841,187.831 180.5,191.5C 180.5,190.833 180.5,190.167 180.5,189.5C 183.635,186.099 187.302,183.433 191.5,181.5 Z"/></g>
<g><path style="opacity:0.954" fill="#343aee" d="M 147.5,180.5 C 145.174,198.103 143.507,215.77 142.5,233.5C 137.358,215.213 139.025,197.547 147.5,180.5 Z"/></g>
<g><path style="opacity:1" fill="#0b4fa4" d="M 266.5,179.5 C 268.884,181.885 271.55,183.885 274.5,185.5C 277.5,189.167 280.833,192.5 284.5,195.5C 286.277,200.001 287.777,204.667 289,209.5C 291.333,211.167 293.667,212.833 296,214.5C 296.986,216.778 297.82,219.111 298.5,221.5C 298,221.833 297.5,222.167 297,222.5C 294.953,221.391 292.787,220.724 290.5,220.5C 288.566,219.89 286.899,218.89 285.5,217.5C 286.376,217.631 287.043,217.298 287.5,216.5C 286.134,213.308 285.301,209.974 285,206.5C 279.998,202.33 275.164,197.996 270.5,193.5C 270.012,188.539 268.679,183.872 266.5,179.5 Z"/></g>
<g><path style="opacity:1" fill="#91d3fc" d="M 333.5,204.5 C 328.796,207.047 323.796,207.88 318.5,207C 320.708,206.809 322.708,206.309 324.5,205.5C 327.016,205.245 329.35,204.411 331.5,203C 337.212,197.624 339.046,191.124 337,183.5C 340.975,191.373 339.808,198.373 333.5,204.5 Z"/></g>
<g><path style="opacity:0.302" fill="#0411e4" d="M 180.5,189.5 C 180.5,190.167 180.5,190.833 180.5,191.5C 179.781,193.317 178.781,193.984 177.5,193.5C 178.035,191.739 179.035,190.406 180.5,189.5 Z"/></g>
<g><path style="opacity:1" fill="#0c117e" d="M 260.5,197.5 C 262.914,198.911 264.581,200.911 265.5,203.5C 265.5,204.5 265.5,205.5 265.5,206.5C 265.167,206.5 264.833,206.5 264.5,206.5C 262.429,205.055 260.096,204.055 257.5,203.5C 258.5,201.5 259.5,199.5 260.5,197.5 Z"/></g>
<g><path style="opacity:0.968" fill="#0a4190" d="M 270.5,193.5 C 275.164,197.996 279.998,202.33 285,206.5C 285.301,209.974 286.134,213.308 287.5,216.5C 287.043,217.298 286.376,217.631 285.5,217.5C 283.95,216.559 282.284,215.893 280.5,215.5C 280.631,214.761 280.464,214.094 280,213.5C 275.814,210.503 271.981,207.17 268.5,203.5C 269.613,202.054 269.78,200.387 269,198.5C 268.667,199.167 268.333,199.833 268,200.5C 267.338,198.187 266.838,195.854 266.5,193.5C 265.5,193.5 264.5,193.5 263.5,193.5C 262.833,191.181 262.666,188.847 263,186.5C 265.37,189.039 267.87,191.372 270.5,193.5 Z"/></g>
<g><path style="opacity:0.75" fill="#2995e3" d="M 251.5,208.5 C 251.225,206.158 250.392,206.158 249,208.5C 248.536,207.906 248.369,207.239 248.5,206.5C 249.795,202.577 251.628,198.91 254,195.5C 255.167,196.667 256.333,197.833 257.5,199C 255.35,202.147 253.35,205.313 251.5,208.5 Z"/></g>
<g><path style="opacity:1" fill="#0c17e8" d="M 257.5,203.5 C 260.096,204.055 262.429,205.055 264.5,206.5C 262.213,213.074 258.879,219.074 254.5,224.5C 246.142,234.862 235.808,242.529 223.5,247.5C 221.167,247.5 218.833,247.5 216.5,247.5C 214.347,248.573 212.347,248.573 210.5,247.5C 226.692,244.474 238.858,235.807 247,221.5C 250.779,215.601 254.279,209.601 257.5,203.5 Z"/></g>
<g><path style="opacity:0.325" fill="#1b53cf" d="M 354.5,196.5 C 355.473,198.948 355.806,201.615 355.5,204.5C 355.598,206.553 354.931,208.22 353.5,209.5C 354.207,206.214 354.54,202.881 354.5,199.5C 354.5,198.5 354.5,197.5 354.5,196.5 Z"/></g>
<g><path style="opacity:1" fill="#1260b4" d="M 284.5,195.5 C 289.23,200.236 294.23,204.569 299.5,208.5C 300.542,212.838 302.542,216.671 305.5,220C 306.233,221.766 306.567,223.599 306.5,225.5C 304.297,225.065 302.297,225.065 300.5,225.5C 296.849,224.341 293.515,222.674 290.5,220.5C 292.787,220.724 294.953,221.391 297,222.5C 297.5,222.167 298,221.833 298.5,221.5C 297.82,219.111 296.986,216.778 296,214.5C 293.667,212.833 291.333,211.167 289,209.5C 287.777,204.667 286.277,200.001 284.5,195.5 Z"/></g>
<g><path style="opacity:1" fill="#284080" d="M 268.5,203.5 C 271.981,207.17 275.814,210.503 280,213.5C 280.464,214.094 280.631,214.761 280.5,215.5C 278.87,220.081 276.87,224.414 274.5,228.5C 274.668,221.383 272.668,215.049 268.5,209.5C 267.306,208.728 266.306,207.728 265.5,206.5C 265.5,205.5 265.5,204.5 265.5,203.5C 266.5,202.167 267.5,202.167 268.5,203.5 Z"/></g>
<g><path style="opacity:0.992" fill="#4d8af6" d="M 268.5,209.5 C 272.668,215.049 274.668,221.383 274.5,228.5C 271.594,235.981 267.928,242.981 263.5,249.5C 265.272,236.552 266.605,223.552 267.5,210.5C 267.5,209.833 267.833,209.5 268.5,209.5 Z"/></g>
<g><path style="opacity:0.703" fill="#176dc4" d="M 248.5,206.5 C 248.369,207.239 248.536,207.906 249,208.5C 250.392,206.158 251.225,206.158 251.5,208.5C 250.737,210.368 249.737,212.035 248.5,213.5C 248.607,211.621 248.107,211.288 247,212.5C 243.733,218.593 239.566,223.926 234.5,228.5C 234.5,228.167 234.5,227.833 234.5,227.5C 239.428,220.635 244.095,213.635 248.5,206.5 Z"/></g>
<g><path style="opacity:1" fill="#2388d7" d="M 337.5,226.5 C 331.78,228.941 325.78,229.941 319.5,229.5C 319.389,228.883 319.056,228.383 318.5,228C 322.431,227.597 323.431,225.764 321.5,222.5C 319.856,222.714 318.356,222.38 317,221.5C 316.495,219.482 315.995,217.482 315.5,215.5C 318.85,215.665 322.183,215.498 325.5,215C 328.246,213.757 330.912,212.757 333.5,212C 334.727,214.736 335.727,217.569 336.5,220.5C 339.028,221.517 339.028,222.684 336.5,224C 337.252,224.671 337.586,225.504 337.5,226.5 Z"/></g>
<g><path style="opacity:1" fill="#186ebf" d="M 299.5,208.5 C 301.833,209.833 304.167,211.167 306.5,212.5C 309.215,214.072 312.215,215.072 315.5,215.5C 315.995,217.482 316.495,219.482 317,221.5C 318.356,222.38 319.856,222.714 321.5,222.5C 323.431,225.764 322.431,227.597 318.5,228C 319.056,228.383 319.389,228.883 319.5,229.5C 312.762,229.562 306.429,228.228 300.5,225.5C 302.297,225.065 304.297,225.065 306.5,225.5C 306.567,223.599 306.233,221.766 305.5,220C 302.542,216.671 300.542,212.838 299.5,208.5 Z"/></g>
<g><path style="opacity:0.994" fill="#344ddd" d="M 152.5,224.5 C 153.5,227.167 154.5,229.833 155.5,232.5C 153.49,239.555 152.49,246.888 152.5,254.5C 150.412,252.664 149.079,250.331 148.5,247.5C 148.245,239.347 149.578,231.681 152.5,224.5 Z"/></g>
<g><path style="opacity:0.949" fill="#0f3678" d="M 248.5,213.5 C 243.868,223.798 236.534,231.465 226.5,236.5C 226.833,235.833 227.167,235.167 227.5,234.5C 230.427,233.243 232.761,231.243 234.5,228.5C 239.566,223.926 243.733,218.593 247,212.5C 248.107,211.288 248.607,211.621 248.5,213.5 Z"/></g>
<g><path style="opacity:1" fill="#5297f9" d="M 267.5,210.5 C 266.605,223.552 265.272,236.552 263.5,249.5C 260.645,254.557 257.312,259.223 253.5,263.5C 254.389,253.996 255.389,244.496 256.5,235C 256.492,233.293 256.158,231.793 255.5,230.5C 259.933,224.073 263.933,217.406 267.5,210.5 Z"/></g>
<g><path style="opacity:0.751" fill="#3790db" d="M 342.5,230.5 C 341.811,229.226 340.977,229.226 340,230.5C 339.536,229.906 339.369,229.239 339.5,228.5C 344.735,226.101 348.902,222.434 352,217.5C 351.874,220.098 350.874,222.431 349,224.5C 347.243,227.097 345.076,229.097 342.5,230.5 Z"/></g>
<g><path style="opacity:0.82" fill="#0236b7" d="M 234.5,227.5 C 234.5,227.833 234.5,228.167 234.5,228.5C 232.761,231.243 230.427,233.243 227.5,234.5C 229.5,231.833 231.833,229.5 234.5,227.5 Z"/></g>
<g><path style="opacity:1" fill="#2473cd" d="M 264.5,206.5 C 264.833,206.5 265.167,206.5 265.5,206.5C 266.306,207.728 267.306,208.728 268.5,209.5C 267.833,209.5 267.5,209.833 267.5,210.5C 263.933,217.406 259.933,224.073 255.5,230.5C 251.511,236.155 246.844,241.155 241.5,245.5C 240.833,245.833 240.167,246.167 239.5,246.5C 239.567,245.041 239.234,243.708 238.5,242.5C 240.271,239.715 242.771,237.715 246,236.5C 247.961,233.537 250.294,230.871 253,228.5C 253.791,227.255 254.291,225.922 254.5,224.5C 258.879,219.074 262.213,213.074 264.5,206.5 Z"/></g>
<g><path style="opacity:1" fill="#0428c5" d="M 302.5,230.5 C 307.43,231.648 312.43,232.315 317.5,232.5C 317.5,233.833 316.833,234.5 315.5,234.5C 310.656,234.564 306.322,233.231 302.5,230.5 Z"/></g>
<g><path style="opacity:0.775" fill="#145ead" d="M 339.5,228.5 C 339.369,229.239 339.536,229.906 340,230.5C 340.977,229.226 341.811,229.226 342.5,230.5C 339.367,234.067 335.367,236.067 330.5,236.5C 329.817,234.824 328.483,234.157 326.5,234.5C 326.5,233.833 326.5,233.167 326.5,232.5C 331.191,232.245 335.524,230.912 339.5,228.5 Z"/></g>
<g><path style="opacity:1" fill="#023cb2" d="M 317.5,232.5 C 320.346,233.095 323.346,233.095 326.5,232.5C 326.5,233.167 326.5,233.833 326.5,234.5C 323.272,235.414 319.939,235.747 316.5,235.5C 315.833,235.5 315.5,235.167 315.5,234.5C 316.833,234.5 317.5,233.833 317.5,232.5 Z"/></g>
<g><path style="opacity:1" fill="#0b1a79" d="M 302.5,230.5 C 306.322,233.231 310.656,234.564 315.5,234.5C 315.5,235.167 315.833,235.5 316.5,235.5C 316.5,236.167 316.5,236.833 316.5,237.5C 309.715,236.85 303.715,234.35 298.5,230C 300.066,229.235 301.399,229.402 302.5,230.5 Z"/></g>
<g><path style="opacity:0.839" fill="#08317e" d="M 326.5,234.5 C 328.483,234.157 329.817,234.824 330.5,236.5C 326.024,238.35 321.358,238.683 316.5,237.5C 316.5,236.833 316.5,236.167 316.5,235.5C 319.939,235.747 323.272,235.414 326.5,234.5 Z"/></g>
<g><path style="opacity:0.999" fill="#3458d3" d="M 155.5,232.5 C 157.584,236.336 159.917,240.003 162.5,243.5C 161.883,243.611 161.383,243.944 161,244.5C 159.838,250.445 159.338,256.445 159.5,262.5C 156.45,260.451 154.117,257.784 152.5,254.5C 152.49,246.888 153.49,239.555 155.5,232.5 Z"/></g>
<g><path style="opacity:0.314" fill="#081c9b" d="M 227.5,234.5 C 227.167,235.167 226.833,235.833 226.5,236.5C 224.206,238.431 221.539,239.264 218.5,239C 221.553,237.473 224.553,235.973 227.5,234.5 Z"/></g>
<g><path style="opacity:1" fill="#0426d1" d="M 151.5,220.5 C 158.148,232.461 168.148,240.461 181.5,244.5C 182.964,250.225 184.631,255.892 186.5,261.5C 183.378,260.439 180.378,259.105 177.5,257.5C 175.14,255.147 172.473,253.147 169.5,251.5C 167.138,248.808 164.804,246.141 162.5,243.5C 159.917,240.003 157.584,236.336 155.5,232.5C 154.5,229.833 153.5,227.167 152.5,224.5C 151.766,223.292 151.433,221.959 151.5,220.5 Z"/></g>
<g><path style="opacity:1" fill="#7185e5" d="M 254.5,224.5 C 254.291,225.922 253.791,227.255 253,228.5C 250.294,230.871 247.961,233.537 246,236.5C 242.771,237.715 240.271,239.715 238.5,242.5C 233.825,245.169 228.825,246.836 223.5,247.5C 235.808,242.529 246.142,234.862 254.5,224.5 Z"/></g>
<g><path style="opacity:1" fill="#0331c5" d="M 181.5,244.5 C 187.737,247.338 194.07,248.005 200.5,246.5C 202.565,246.517 204.565,246.85 206.5,247.5C 203.972,248.166 201.306,248.832 198.5,249.5C 200.303,254.911 202.303,260.244 204.5,265.5C 204.043,266.298 203.376,266.631 202.5,266.5C 198.803,265.992 195.136,265.326 191.5,264.5C 190.07,263.463 188.403,262.796 186.5,262.5C 186.5,262.167 186.5,261.833 186.5,261.5C 184.631,255.892 182.964,250.225 181.5,244.5 Z"/></g>
<g><path style="opacity:1" fill="#144fb4" d="M 238.5,242.5 C 239.234,243.708 239.567,245.041 239.5,246.5C 234.49,250.007 229.157,253.007 223.5,255.5C 223.436,250.641 221.103,247.975 216.5,247.5C 218.833,247.5 221.167,247.5 223.5,247.5C 228.825,246.836 233.825,245.169 238.5,242.5 Z"/></g>
<g><path style="opacity:0.991" fill="#55a4fa" d="M 255.5,230.5 C 256.158,231.793 256.492,233.293 256.5,235C 255.389,244.496 254.389,253.996 253.5,263.5C 249.397,268.385 244.397,272.052 238.5,274.5C 240.356,268.786 241.023,263.119 240.5,257.5C 243.811,253.853 247.145,250.187 250.5,246.5C 250.333,246.167 250.167,245.833 250,245.5C 247.63,248.039 245.13,250.372 242.5,252.5C 242.802,249.941 242.468,247.607 241.5,245.5C 246.844,241.155 251.511,236.155 255.5,230.5 Z"/></g>
<g><path style="opacity:0.996" fill="#3364c6" d="M 162.5,243.5 C 164.804,246.141 167.138,248.808 169.5,251.5C 167.707,256.887 166.707,262.553 166.5,268.5C 163.573,267.243 161.239,265.243 159.5,262.5C 159.338,256.445 159.838,250.445 161,244.5C 161.383,243.944 161.883,243.611 162.5,243.5 Z"/></g>
<g><path style="opacity:1" fill="#033cbc" d="M 206.5,247.5 C 207.833,247.5 209.167,247.5 210.5,247.5C 212.347,248.573 214.347,248.573 216.5,247.5C 221.103,247.975 223.436,250.641 223.5,255.5C 218.185,257.33 212.852,259.164 207.5,261C 210.817,261.498 214.15,261.665 217.5,261.5C 221.151,261.162 222.817,262.828 222.5,266.5C 215.734,267.809 209.068,267.809 202.5,266.5C 203.376,266.631 204.043,266.298 204.5,265.5C 202.303,260.244 200.303,254.911 198.5,249.5C 201.306,248.832 203.972,248.166 206.5,247.5 Z"/></g>
<g><path style="opacity:1" fill="#3571c2" d="M 169.5,251.5 C 172.473,253.147 175.14,255.147 177.5,257.5C 176.19,263.288 175.523,269.288 175.5,275.5C 172.19,273.518 169.19,271.185 166.5,268.5C 166.707,262.553 167.707,256.887 169.5,251.5 Z"/></g>
<g><path style="opacity:1" fill="#58b7f9" d="M 241.5,245.5 C 242.468,247.607 242.802,249.941 242.5,252.5C 234.702,257.193 226.368,260.193 217.5,261.5C 214.15,261.665 210.817,261.498 207.5,261C 212.852,259.164 218.185,257.33 223.5,255.5C 229.157,253.007 234.49,250.007 239.5,246.5C 240.167,246.167 240.833,245.833 241.5,245.5 Z"/></g>
<g><path style="opacity:1" fill="#4491d8" d="M 177.5,257.5 C 180.378,259.105 183.378,260.439 186.5,261.5C 186.5,261.833 186.5,262.167 186.5,262.5C 185.263,267.96 184.596,273.627 184.5,279.5C 181.382,278.441 178.382,277.108 175.5,275.5C 175.523,269.288 176.19,263.288 177.5,257.5 Z"/></g>
<g><path style="opacity:1" fill="#074cb5" d="M 240.5,257.5 C 236.966,260.097 233.3,262.43 229.5,264.5C 227.035,264.767 224.701,265.434 222.5,266.5C 222.817,262.828 221.151,261.162 217.5,261.5C 226.368,260.193 234.702,257.193 242.5,252.5C 245.13,250.372 247.63,248.039 250,245.5C 250.167,245.833 250.333,246.167 250.5,246.5C 247.145,250.187 243.811,253.853 240.5,257.5 Z"/></g>
<g><path style="opacity:0.994" fill="#5ab4fc" d="M 240.5,257.5 C 241.023,263.119 240.356,268.786 238.5,274.5C 235.744,276.204 232.744,277.537 229.5,278.5C 230.43,275.094 231.097,271.594 231.5,268C 231.392,266.319 230.725,265.152 229.5,264.5C 233.3,262.43 236.966,260.097 240.5,257.5 Z"/></g>
<g><path style="opacity:0.982" fill="#52acec" d="M 186.5,262.5 C 188.403,262.796 190.07,263.463 191.5,264.5C 190.761,269.82 190.094,275.154 189.5,280.5C 187.883,279.962 186.216,279.629 184.5,279.5C 184.596,273.627 185.263,267.96 186.5,262.5 Z"/></g>
<g><path style="opacity:0.998" fill="#5ec1fd" d="M 191.5,264.5 C 195.136,265.326 198.803,265.992 202.5,266.5C 209.068,267.809 215.734,267.809 222.5,266.5C 224.701,265.434 227.035,264.767 229.5,264.5C 230.725,265.152 231.392,266.319 231.5,268C 231.097,271.594 230.43,275.094 229.5,278.5C 216.366,282.859 203.033,283.526 189.5,280.5C 190.094,275.154 190.761,269.82 191.5,264.5 Z"/></g>
<g><path style="opacity:0.827" fill="#fefffe" d="M 212.5,304.5 C 214.857,304.337 217.19,304.503 219.5,305C 221.757,306.45 224.09,307.617 226.5,308.5C 226.5,310.5 226.5,312.5 226.5,314.5C 224.076,314.808 221.743,314.474 219.5,313.5C 217.815,310.145 215.815,309.811 213.5,312.5C 217.485,314.217 221.318,316.217 225,318.5C 226.471,330.018 221.638,333.851 210.5,330C 207.156,328.106 205.822,325.273 206.5,321.5C 208.833,321.5 211.167,321.5 213.5,321.5C 213.35,325.161 214.85,326.161 218,324.5C 218.667,323.833 218.667,323.167 218,322.5C 215.345,320.947 212.512,319.78 209.5,319C 205.038,313.018 206.038,308.185 212.5,304.5 Z"/></g>
<g><path style="opacity:0.828" fill="#fefffe" d="M 247.5,304.5 C 259.819,306.454 263.985,313.454 260,325.5C 253.95,332.555 247.284,333.222 240,327.5C 234.218,317.013 236.718,309.346 247.5,304.5 Z M 246.5,311.5 C 251.855,310.351 254.855,312.517 255.5,318C 253.375,325.837 249.542,327.004 244,321.5C 243.024,317.673 243.857,314.34 246.5,311.5 Z"/></g>
<g><path style="opacity:0.825" fill="#fefffe" d="M 285.5,314.5 C 291.528,316.213 293.695,320.213 292,326.5C 289.024,330.939 284.857,332.439 279.5,331C 275.32,329.014 272.987,325.847 272.5,321.5C 274.924,321.192 277.257,321.526 279.5,322.5C 281.185,325.855 283.185,326.189 285.5,323.5C 282.012,321.602 278.512,319.602 275,317.5C 271.811,309.543 274.478,305.209 283,304.5C 289.155,305.151 292.321,308.485 292.5,314.5C 290.167,314.5 287.833,314.5 285.5,314.5 Z M 285.5,314.5 C 282.817,314.773 281.317,313.773 281,311.5C 284.15,309.839 285.65,310.839 285.5,314.5 Z"/></g>
<g><path style="opacity:0.624" fill="#38b6ff" d="M 173.5,340.5 C 177.622,339.894 180.622,341.394 182.5,345C 181.497,348.505 179.163,350.005 175.5,349.5C 175.719,350.675 175.386,351.675 174.5,352.5C 173.509,348.555 173.176,344.555 173.5,340.5 Z M 175.5,343.5 C 176.833,343.5 178.167,343.5 179.5,343.5C 179.55,345.59 178.55,346.923 176.5,347.5C 175.571,346.311 175.238,344.978 175.5,343.5 Z"/></g>
<g><path style="opacity:0.544" fill="#38b6ff" d="M 189.5,340.5 C 192.602,340.154 195.435,340.821 198,342.5C 198.896,345.025 198.396,347.192 196.5,349C 199.433,351.351 199.099,352.351 195.5,352C 193.332,347.301 192.332,347.468 192.5,352.5C 191.5,352.5 190.5,352.5 189.5,352.5C 189.5,348.5 189.5,344.5 189.5,340.5 Z M 192.5,343.5 C 197.833,344.5 197.833,345.5 192.5,346.5C 192.5,345.5 192.5,344.5 192.5,343.5 Z"/></g>
<g><path style="opacity:0.524" fill="#38b6ff" d="M 206.5,340.5 C 209.167,340.5 211.833,340.5 214.5,340.5C 214.5,341.5 214.5,342.5 214.5,343.5C 207.951,343.907 207.951,344.907 214.5,346.5C 212.955,347.452 211.288,347.785 209.5,347.5C 209.5,348.5 209.5,349.5 209.5,350.5C 211.288,350.215 212.955,350.548 214.5,351.5C 211.914,352.48 209.247,352.813 206.5,352.5C 206.5,348.5 206.5,344.5 206.5,340.5 Z"/></g>
<g><path style="opacity:0.456" fill="#38b6ff" d="M 222.5,340.5 C 225.167,340.5 227.833,340.5 230.5,340.5C 230.5,341.5 230.5,342.5 230.5,343.5C 228.712,343.215 227.045,343.548 225.5,344.5C 226.689,345.429 228.022,345.762 229.5,345.5C 229.5,346.5 229.5,347.5 229.5,348.5C 228.167,348.5 226.833,348.5 225.5,348.5C 225.5,349.833 225.5,351.167 225.5,352.5C 224.5,352.5 223.5,352.5 222.5,352.5C 222.5,348.5 222.5,344.5 222.5,340.5 Z"/></g>
<g><path style="opacity:0.584" fill="#38b6ff" d="M 238.5,340.5 C 241.167,340.5 243.833,340.5 246.5,340.5C 246.5,341.5 246.5,342.5 246.5,343.5C 239.338,343.613 239.005,344.613 245.5,346.5C 243.955,347.452 242.288,347.785 240.5,347.5C 240.5,348.5 240.5,349.5 240.5,350.5C 242.604,350.201 244.604,350.534 246.5,351.5C 243.914,352.48 241.247,352.813 238.5,352.5C 238.5,348.5 238.5,344.5 238.5,340.5 Z"/></g>
<g><path style="opacity:0.673" fill="#38b6ff" d="M 254.5,340.5 C 255.794,342.048 256.461,344.048 256.5,346.5C 256.167,348.5 255.833,350.5 255.5,352.5C 254.509,348.555 254.176,344.555 254.5,340.5 Z"/></g>
<g><path style="opacity:0.55" fill="#38b6ff" d="M 264.5,340.5 C 267.833,340.5 271.167,340.5 274.5,340.5C 274.5,341.5 274.5,342.5 274.5,343.5C 273.167,343.5 271.833,343.5 270.5,343.5C 269.833,355.5 269.167,355.5 268.5,343.5C 267.167,343.5 265.833,343.5 264.5,343.5C 264.5,342.5 264.5,341.5 264.5,340.5 Z"/></g>
<g><path style="opacity:0.523" fill="#38b6ff" d="M 281.5,340.5 C 282.5,340.5 283.5,340.5 284.5,340.5C 284.5,343.833 284.5,347.167 284.5,350.5C 285.833,350.5 287.167,350.5 288.5,350.5C 290.301,337.252 291.135,337.252 291,350.5C 287.567,354.628 284.567,354.295 282,349.5C 281.502,346.518 281.335,343.518 281.5,340.5 Z"/></g>
<g><path style="opacity:0.537" fill="#38b6ff" d="M 299.5,340.5 C 307.228,338.834 309.895,341.667 307.5,349C 307.759,350.261 308.426,351.261 309.5,352C 308.056,352.781 306.723,352.614 305.5,351.5C 303.135,347.245 302.135,347.579 302.5,352.5C 301.5,352.5 300.5,352.5 299.5,352.5C 299.5,348.5 299.5,344.5 299.5,340.5 Z M 302.5,343.5 C 303.833,343.5 305.167,343.5 306.5,343.5C 306.5,344.5 306.5,345.5 306.5,346.5C 305.167,346.5 303.833,346.5 302.5,346.5C 302.5,345.5 302.5,344.5 302.5,343.5 Z"/></g>
<g><path style="opacity:0.571" fill="#38b6ff" d="M 320.5,340.5 C 321.496,340.414 322.329,340.748 323,341.5C 324.371,345.073 325.871,348.573 327.5,352C 325.621,352.063 323.787,351.563 322,350.5C 319.924,351.612 317.757,352.112 315.5,352C 317.31,348.214 318.977,344.381 320.5,340.5 Z M 320.5,346.5 C 322.337,346.639 322.67,347.306 321.5,348.5C 320.702,348.043 320.369,347.376 320.5,346.5 Z"/></g>
</svg>
